<?xml version="1.0" encoding="UTF-8" standalone="no"?>
<!-- Created with Inkscape (http://www.inkscape.org/) -->

<svg
   xmlns:dc="http://purl.org/dc/elements/1.1/"
   xmlns:cc="http://creativecommons.org/ns#"
   xmlns:rdf="http://www.w3.org/1999/02/22-rdf-syntax-ns#"
   xmlns:svg="http://www.w3.org/2000/svg"
   xmlns="http://www.w3.org/2000/svg"
   xmlns:sodipodi="http://sodipodi.sourceforge.net/DTD/sodipodi-0.dtd"
   xmlns:inkscape="http://www.inkscape.org/namespaces/inkscape"
   width="297mm"
   height="210mm"
   viewBox="0 0 297 210"
   version="1.1"
   id="svg8"
   inkscape:version="0.92.1 r15371"
   sodipodi:docname="fig1.svg">
  <sodipodi:namedview
     id="base"
     pagecolor="#00567c"
     bordercolor="#666666"
     borderopacity="1.0"
     inkscape:pageopacity="1"
     inkscape:pageshadow="2"
     inkscape:zoom="0.98994949"
     inkscape:cx="468.29783"
     inkscape:cy="371.93744"
     inkscape:document-units="mm"
     inkscape:current-layer="layer1"
     showgrid="false"
     inkscape:window-width="1916"
     inkscape:window-height="1041"
     inkscape:window-x="0"
     inkscape:window-y="18"
     inkscape:window-maximized="0"
     showguides="false"
     inkscape:pagecheckerboard="false">
    <sodipodi:guide
       position="172.65612,200.45214"
       orientation="0,1"
       id="guide4533"
       inkscape:locked="false" />
  </sodipodi:namedview>
  <defs
     id="defs2">
    <clipPath
       clipPathUnits="userSpaceOnUse"
       id="clipPath5720">
      <rect
         style="fill:#88aa00;stroke-width:0.26458332"
         id="rect5722"
         width="285.71112"
         height="197.51216"
         x="6.6817379"
         y="94.142433"
         transform="rotate(-52.125728)" />
    </clipPath>
    <clipPath
       clipPathUnits="userSpaceOnUse"
       id="clipPath5724">
      <rect
         style="fill:#88aa00;stroke-width:0.45548642"
         id="rect5726"
         width="436.89368"
         height="382.79932"
         x="10.217345"
         y="182.45792"
         transform="matrix(0.92624006,0.37693415,-0.52649091,-0.85018076,0,0)" />
    </clipPath>
    <clipPath
       clipPathUnits="userSpaceOnUse"
       id="clipPath5728">
      <rect
         style="fill:#88aa00;stroke-width:0.26458332"
         id="rect5730"
         width="285.71112"
         height="197.51216"
         x="6.6817379"
         y="94.142433" />
    </clipPath>
    <clipPath
       clipPathUnits="userSpaceOnUse"
       id="clipPath5732">
      <rect
         style="fill:#88aa00;stroke-width:0.27819544"
         id="rect5734"
         width="285.71112"
         height="218.35791"
         x="6.6817379"
         y="104.07838"
         transform="matrix(1,0,-0.30151134,0.95346259,0,0)" />
    </clipPath>
    <clipPath
       clipPathUnits="userSpaceOnUse"
       id="clipPath5736">
      <rect
         style="fill:#88aa00;stroke-width:0.27362648"
         id="rect5738"
         width="285.71112"
         height="211.24437"
         x="6.6817379"
         y="100.68777"
         transform="matrix(1,0,0.25078548,0.96804269,0,0)" />
    </clipPath>
    <clipPath
       clipPathUnits="userSpaceOnUse"
       id="clipPath5740">
      <rect
         style="fill:#88aa00;stroke-width:0.26458332"
         id="rect5742"
         width="285.71112"
         height="197.51216"
         x="6.6817379"
         y="94.142433" />
    </clipPath>
    <clipPath
       clipPathUnits="userSpaceOnUse"
       id="clipPath5744">
      <rect
         style="fill:#88aa00;stroke-width:0.26458332"
         id="rect5746"
         width="285.71112"
         height="197.51216"
         x="6.6817379"
         y="94.142433" />
    </clipPath>
    <clipPath
       clipPathUnits="userSpaceOnUse"
       id="clipPath5748">
      <rect
         style="fill:#88aa00;stroke-width:0.26458332"
         id="rect5750"
         width="285.71112"
         height="197.51216"
         x="6.6817379"
         y="94.142433"
         transform="rotate(22.722197)" />
    </clipPath>
    <clipPath
       clipPathUnits="userSpaceOnUse"
       id="clipPath5752">
      <rect
         style="fill:#88aa00;stroke-width:0.26458332"
         id="rect5754"
         width="285.71112"
         height="197.51216"
         x="6.6817379"
         y="94.142433" />
    </clipPath>
    <clipPath
       clipPathUnits="userSpaceOnUse"
       id="clipPath5756">
      <rect
         style="fill:#88aa00;stroke-width:0.30109069"
         id="rect5758"
         width="285.71112"
         height="255.77824"
         x="6.6817379"
         y="121.91444"
         transform="matrix(1,0,-0.44928049,0.89339076,0,0)" />
    </clipPath>
    <clipPath
       clipPathUnits="userSpaceOnUse"
       id="clipPath5760">
      <rect
         style="fill:#88aa00;stroke-width:0.27268079"
         id="rect5762"
         width="303.46689"
         height="197.51216"
         x="7.0969806"
         y="94.142433"
         transform="matrix(0.97118584,0.23832344,0,1,0,0)" />
    </clipPath>
    <clipPath
       clipPathUnits="userSpaceOnUse"
       id="clipPath5764">
      <rect
         style="fill:#88aa00;stroke-width:0.27247667"
         id="rect5766"
         width="285.71112"
         height="209.47279"
         x="6.6817379"
         y="99.843361"
         transform="matrix(1,0,-0.23551768,0.97187006,0,0)" />
    </clipPath>
    <clipPath
       clipPathUnits="userSpaceOnUse"
       id="clipPath5768">
      <rect
         style="fill:#88aa00;stroke-width:0.26458332"
         id="rect5770"
         width="285.71112"
         height="197.51216"
         x="6.6817379"
         y="94.142433" />
    </clipPath>
  </defs>
  <metadata
     id="metadata5">
    <rdf:RDF>
      <cc:Work
         rdf:about="">
        <dc:format>image/svg+xml</dc:format>
        <dc:type
           rdf:resource="http://purl.org/dc/dcmitype/StillImage" />
        <dc:title></dc:title>
      </cc:Work>
    </rdf:RDF>
  </metadata>
  <g
     inkscape:label="Layer 1"
     inkscape:groupmode="layer"
     id="layer1"
     transform="translate(0,-87)">
    <path
       style="fill:#d40000;fill-opacity:0;stroke-width:1.01015258"
       d="M 180.09601,145.84018 C 176.78742,139.01841 167.60384,125.08061 160.96038,116.7983 135.18346,84.662501 102.26397,67.697129 76.341455,73.189124 61.261432,76.384006 47.94837,86.411017 40.730636,100.01015 36.943818,107.145 36.351716,107.00623 34.441279,98.536127 29.55027,76.851371 60.513594,55.335024 111.91143,44.702288 c 83.1552,-17.202423 190.36882,-1.203905 218.01294,32.5321 13.24093,16.158816 6.64191,33.928272 -17.79155,47.908032 -25.56768,14.6287 -76.69719,25.49599 -119.9561,25.49599 h -9.75355 z"
       id="path5774"
       inkscape:connector-curvature="0"
       transform="matrix(0.26458333,0,0,0.26458333,0,87)" />
    <path
       style="fill:#d40000;fill-opacity:0;stroke-width:1.01015258"
       d="M 180.09601,145.84018 C 176.78742,139.01841 167.60384,125.08061 160.96038,116.7983 135.18346,84.662501 102.26397,67.697129 76.341455,73.189124 61.261432,76.384006 47.94837,86.411017 40.730636,100.01015 36.943818,107.145 36.351716,107.00623 34.441279,98.536127 29.55027,76.851371 60.513594,55.335024 111.91143,44.702288 c 83.1552,-17.202423 190.36882,-1.203905 218.01294,32.5321 13.24093,16.158816 6.64191,33.928272 -17.79155,47.908032 -25.56768,14.6287 -76.69719,25.49599 -119.9561,25.49599 h -9.75355 z"
       id="path5776"
       inkscape:connector-curvature="0"
       transform="matrix(0.26458333,0,0,0.26458333,0,87)" />
    <path
       style="fill:none;stroke:#000000;stroke-width:0.26458332px;stroke-linecap:butt;stroke-linejoin:miter;stroke-opacity:1"
       d="M 21.381562,142.51822 C 18.708867,105.36775 -1.0690781,116.86034 18.708867,105.36775 38.486812,93.875164 21.648831,90.66793 38.486812,93.875164 c 16.83798,3.207234 77.775428,39.021346 77.775428,39.021346 0,0 55.85933,50.24667 -94.880678,9.62171 z"
       id="path5782"
       inkscape:connector-curvature="0" />
    <path
       style="fill:none;stroke:#000000;stroke-width:0.26458332px;stroke-linecap:butt;stroke-linejoin:miter;stroke-opacity:1"
       d="m 181.74328,114.45492 c 0.80181,48.91032 -39.82316,29.66691 0.53454,49.17759 40.35769,19.51067 17.37251,39.28862 40.35769,19.51067 22.98518,-19.77794 74.03366,-41.69404 34.2105,-63.0756 -39.82316,-21.381565 -18.44159,-24.32153 -39.82316,-21.381565 -21.38156,2.939965 -35.27957,15.768905 -35.27957,15.768905 z"
       id="path5784"
       inkscape:connector-curvature="0" />
    <path
       style="fill:none;stroke:#000000;stroke-width:0.26458332px;stroke-linecap:butt;stroke-linejoin:miter;stroke-opacity:1"
       d="m 123.74579,181.00503 c -19.2434,44.63401 -68.420998,53.72117 -19.77795,46.23763 48.64306,-7.48355 56.1266,45.70309 49.1776,-7.48355 -6.94901,-53.18664 4.54358,-77.77543 -12.2944,-58.26476 -16.83798,19.51068 -17.10525,19.51068 -17.10525,19.51068 z"
       id="path5786"
       inkscape:connector-curvature="0" />
    <path
       style="fill:none;stroke:#000000;stroke-width:0.26458332px;stroke-linecap:butt;stroke-linejoin:miter;stroke-opacity:1"
       d="m 207.66842,261.72043 c 32.07234,-72.43005 10.95805,-73.23186 32.33961,-72.43005 21.38156,0.80181 26.99423,-50.51394 21.38156,1.33635 -5.61265,51.85029 12.02715,58.7993 -5.61265,51.85029 -17.63979,-6.94901 -22.45065,-40.3577 -17.63979,-6.94901 4.81085,33.40869 -7.48355,46.77217 -7.48355,46.77217 z"
       id="path5788"
       inkscape:connector-curvature="0" />
    <path
       style="fill:none;stroke:#000000;stroke-width:0.26458332px;stroke-linecap:butt;stroke-linejoin:miter;stroke-opacity:1"
       d="M 26.994223,188.48857 C 10.690781,242.74429 -1.6036172,241.40794 10.690781,242.74429 22.985179,244.08064 120.27129,209.3356 84.457169,188.75584 48.643053,168.17609 26.994223,188.48857 26.994223,188.48857 Z"
       id="path5790"
       inkscape:connector-curvature="0" />
    <path
       style="fill:none;stroke:#000000;stroke-width:0.26458332px;stroke-linecap:butt;stroke-linejoin:miter;stroke-opacity:1"
       d="M 29.934188,283.9038 C 157.68902,281.49837 214.08289,283.10199 163.03441,263.32404 111.98593,243.5461 99.958802,233.12259 78.309972,241.40794 56.661139,249.6933 20.312484,253.1678 51.583018,256.90957 c 31.270535,3.74178 64.679222,13.63075 21.916101,13.63075 -42.763124,0 -43.564931,13.36348 -43.564931,13.36348 z"
       id="path5792"
       inkscape:connector-curvature="0" />
    <path
       style="fill:none;stroke:#000000;stroke-width:0.26458332px;stroke-linecap:butt;stroke-linejoin:miter;stroke-opacity:1"
       d="m 171.31976,185.01407 c 2.6727,56.66114 10.95806,82.05175 17.63979,58.26476 6.68174,-23.78699 16.57071,-13.36348 6.41447,-35.01231 -10.15624,-21.64883 -24.05426,-23.25245 -24.05426,-23.25245 z"
       id="path5794"
       inkscape:connector-curvature="0" />
    <path
       style="fill:#ff0000;fill-opacity:0.70297033;stroke-width:1.01015258"
       d="M 380.61659,268.16133 C 317.13509,263.8047 240.20407,249.49314 131.61398,221.83915 108.83504,216.03817 88.307455,210.78265 85.997121,210.1602 l -4.200607,-1.13171 -0.664784,-7.22422 C 80.119686,190.80637 76.749097,170.40703 74.439893,161.3042 68.369519,137.37495 60.130956,120.7452 45.902442,103.70063 42.07076,99.110597 39.185025,94.694189 39.185025,93.420111 c 0,-3.112342 4.656387,-6.675184 23.097376,-17.672996 35.466145,-21.15125 46.133299,-30.885381 50.164119,-45.776417 1.42799,-5.275424 2.27003,-6.768848 4.07144,-7.220972 3.91583,-0.982812 31.68389,4.623001 45.4006,9.165471 42.82369,14.181627 125.17189,55.908762 244.72964,124.008373 l 33.60776,19.14284 8.0373,8.96413 c 22.75072,25.37422 31.28878,43.92114 27.17757,59.03683 -1.63225,6.0013 -10.77076,14.53733 -19.15803,17.89498 -15.81427,6.33089 -46.21577,9.22218 -75.69621,7.19898 z"
       id="path5796"
       inkscape:connector-curvature="0"
       transform="matrix(0.26458333,0,0,0.26458333,0,87)" />
    <path
       style="fill:#ff4c00;fill-opacity:0.70297033;stroke-width:1.01015258"
       d="m 795.5743,390.80218 c -0.80163,-1.25007 -4.2128,-7.95496 -7.58041,-14.89975 -7.56952,-15.61017 -15.60517,-26.96857 -27.78193,-39.26981 -19.33378,-19.53142 -36.93868,-30.87038 -85.84641,-55.29197 -46.6925,-23.31543 -54.24437,-28.24907 -51.39375,-33.57551 0.58979,-1.10204 5.736,-5.61974 11.43601,-10.03936 22.35631,-17.33437 34.45476,-33.61518 42.94655,-57.79295 6.3969,-18.21319 10.3486,-42.76823 10.3486,-64.30406 v -11.28342 l 6.31345,-5.018116 c 29.51256,-23.457417 71.78002,-43.19519 109.34902,-51.063071 13.23497,-2.771732 42.3896,-6.72223 49.60998,-6.72223 6.71653,0 9.49047,1.960359 18.68369,13.203843 17.69432,21.640473 43.12272,40.29575 92.69376,68.003814 22.4691,12.55925 30.83873,18.24881 40.84594,27.76653 37.959,36.10219 22.8566,73.59392 -52.3308,129.91188 -8.33376,6.24227 -28.33478,20.59023 -44.44671,31.88436 -39.63451,27.78297 -53.05928,37.882 -74.05881,55.71208 -29.03283,24.65091 -35.24693,28.30004 -38.78818,22.77774 z"
       id="path5798"
       inkscape:connector-curvature="0"
       transform="matrix(0.26458333,0,0,0.26458333,0,87)" />
    <path
       style="fill:#ff0031;fill-opacity:0.70297033;stroke-width:1.01015258"
       d="m 116.42067,738.62815 c 11.50882,-22.71158 54.63459,-38.18079 118.22887,-42.40872 8.33376,-0.55404 29.4712,-1.27939 46.9721,-1.61188 47.0361,-0.8936 65.59003,-2.98795 71.49912,-8.07072 2.34342,-2.01573 2.57338,-2.70089 1.71638,-5.11379 -4.02214,-11.32429 -71.66619,-28.75916 -152.51248,-39.30922 -26.08528,-3.404 -36.31528,-5.17425 -44.48713,-7.69828 -16.7217,-5.16481 -7.69098,-9.25558 56.60896,-25.64291 34.20122,-8.71645 60.64791,-16.46095 79.15633,-23.17972 26.251,-9.52939 41.40819,-12.31284 62.199,-11.42212 31.45795,1.34771 54.30007,8.68909 146.03307,46.93453 28.61257,11.92919 70.88746,29.19263 93.94419,38.36319 23.05673,9.17057 48.37221,19.75954 56.25663,23.53106 22.29646,10.66552 33.64694,19.45202 33.64694,26.04635 0,5.64212 -13.42991,11.58778 -34.65606,15.34283 -49.64044,8.78174 -123.02732,11.86223 -384.55724,16.14222 -66.94786,1.09561 -128.6346,2.17742 -137.08165,2.40404 l -15.35826,0.41201 z"
       id="path5800"
       inkscape:connector-curvature="0"
       transform="matrix(0.26458333,0,0,0.26458333,0,87)" />
    <path
       style="fill:#ff1d00;fill-opacity:0.67821783;stroke-width:1.01015258"
       d="m 828.64525,698.14264 c -22.76464,-20.47163 -41.5221,-37.6167 -41.68325,-38.10015 -0.16115,-0.48345 3.38953,-9.4963 7.8904,-20.02854 37.23887,-87.14067 56.06338,-149.03673 67.95786,-223.44937 2.82822,-17.69354 5.28146,-23.85086 10.76077,-27.00815 3.19848,-1.84304 5.46152,-2.04966 23.73858,-2.1674 22.57457,-0.14544 25.63334,-0.68692 36.91511,-6.53492 17.51654,-9.07983 32.35261,-26.89167 51.87326,-62.27784 3.75445,-6.8059 7.3109,-12.37437 7.90322,-12.37437 1.27096,0 0.60738,11.57659 -2.25819,39.39595 -1.05873,10.2783 -3.06978,29.82475 -4.46898,43.43656 -7.44626,72.43878 -6.05928,121.88263 5.01185,178.6653 1.98988,10.20586 3.48084,20.43365 3.31324,22.72843 l -0.30471,4.17231 -4.06217,-0.16832 c -4.54467,-0.18832 -23.21022,-6.9754 -31.93624,-11.6125 -12.56135,-6.67524 -27.29227,-20.77956 -39.65645,-37.96958 -2.09812,-2.91703 -8.26796,-12.91754 -13.71076,-22.22335 -5.4428,-9.30582 -10.6315,-17.06665 -11.53044,-17.24628 -2.57375,-0.51431 -2.11179,7.38005 2.33751,39.94551 5.28093,38.65245 6.12206,48.60867 6.12614,72.51422 0.005,30.84889 -3.64211,56.18268 -11.44678,79.5066 -5.51137,16.47049 -17.06144,38.28902 -20.16556,38.09351 -0.66779,-0.042 -19.83978,-16.82599 -42.60441,-37.29762 z"
       id="path5802"
       inkscape:connector-curvature="0"
       transform="matrix(0.26458333,0,0,0.26458333,0,87)" />
    <path
       style="fill:#ff0600;fill-opacity:0.92574257;stroke-width:1.01015258"
       d="m 578.10141,589.20267 c -1.66675,-1.02008 -9.62171,-7.00634 -17.67767,-13.30279 -18.71958,-14.63101 -29.60905,-21.67934 -45.96194,-29.74937 -29.58354,-14.59926 -59.0274,-20.69394 -93.89613,-19.43589 -11.58782,0.4181 -25.14039,1.91811 -47.52523,5.26017 -31.84225,4.75406 -56.19839,6.77527 -57.43977,4.76667 -1.15731,-1.87256 4.13391,-6.93577 25.47026,-24.37265 24.74183,-20.21998 41.27824,-35.13827 55.57033,-50.13268 27.91334,-29.28499 48.38397,-58.17127 65.47663,-92.39462 6.55775,-13.13008 8.43151,-15.90277 18.09028,-26.76904 5.92615,-6.66701 22.23504,-25.30432 36.24199,-41.41626 39.78204,-45.76052 45.58783,-50.20918 49.96738,-38.28723 1.18004,3.21228 1.58143,17.31268 2.16825,76.16795 0.88678,88.94085 1.87409,104.26217 11.65183,180.81731 4.96224,38.85203 6.73506,66.41776 4.44865,69.17271 -1.65626,1.99567 -2.89378,1.93473 -6.58486,-0.32428 z"
       id="path5804"
       inkscape:connector-curvature="0"
       transform="matrix(0.26458333,0,0,0.26458333,0,87)" />
    <path
       style="fill:#ff5300;fill-opacity:0.92574257;stroke-width:1.01015258"
       d="M 689.23192,620.2359 C 672.60724,605.63923 656.6757,516.44254 650.37245,402.67147 c -0.58484,-10.5561 -1.28554,-21.84207 -1.55713,-25.07994 l -0.49378,-5.88705 3.14238,0.69018 c 5.42042,1.19053 16.25354,6.05945 23.76348,10.68044 28.24549,17.37994 51.90772,49.11355 70.42696,94.45017 5.97104,14.61759 7.80747,21.2823 7.84179,28.45923 0.0382,7.99132 -1.29019,10.77177 -12.17586,25.4848 -12.23031,16.53043 -18.79701,29.88777 -26.4758,53.85451 -6.95647,21.71225 -11.3828,31.47536 -16.05092,35.40333 -4.04937,3.40731 -5.18806,3.34882 -9.56165,-0.49124 z"
       id="path5806"
       inkscape:connector-curvature="0"
       transform="matrix(0.26458333,0,0,0.26458333,0,87)" />
    <path
       style="fill:#ff8f00;fill-opacity:0.92574257;stroke-width:1.01015258"
       d="m 34.121963,587.01983 c -8.905979,-1.39633 -11.10174,-2.54113 -11.08416,-5.7789 0.0084,-1.5416 2.751297,-8.03046 6.095394,-14.41967 32.053079,-61.24046 46.985113,-97.957 72.913173,-179.28699 1.0477,-3.28637 2.67445,-4.99915 8.85949,-9.32802 32.41888,-22.6898 77.07201,-31.9716 120.19407,-24.98409 31.74139,5.14338 69.94076,20.11372 94.76826,37.13968 23.99025,16.45181 28.12602,35.25866 12.81752,58.28593 -4.73505,7.12253 -20.4494,22.90641 -30.29503,30.4291 -38.75151,29.60857 -109.52637,63.93915 -181.80545,88.1879 -46.265304,15.52145 -77.24696,22.14078 -92.463267,19.75506 z"
       id="path5808"
       inkscape:connector-curvature="0"
       transform="matrix(0.26458333,0,0,0.26458333,0,87)" />
    <flowRoot
       xml:space="preserve"
       id="flowRoot5810"
       style="fill:black;fill-opacity:1;stroke:none;font-family:sans-serif;font-style:normal;font-weight:normal;font-size:40px;line-height:1.25;letter-spacing:0px;word-spacing:0px"><flowRegion
         id="flowRegion5812"><rect
           id="rect5814"
           width="182.83762"
           height="109.09647"
           x="167.68532"
           y="120.93921" /></flowRegion><flowPara
         id="flowPara5816" /></flowRoot>    <g
       transform="matrix(1.32,0,0,1.32,26.376734,-14.26136)"
       id="g5873">
      <g
         style="font-style:normal;font-variant:normal;font-weight:normal;font-stretch:normal;letter-spacing:normal;word-spacing:normal;text-anchor:start;fill:none;fill-opacity:1;fill-rule:evenodd;stroke:#000000;stroke-linecap:butt;stroke-linejoin:miter;stroke-miterlimit:10.43299961;stroke-dasharray:none;stroke-dashoffset:0;stroke-opacity:1"
         id="content"
         transform="matrix(0.3,0,0,-0.3,-52.5,222.75)"
         xml:space="preserve"
         stroke-miterlimit="10.433"
         font-style="normal"
         font-variant="normal"
         font-weight="normal"
         font-stretch="normal"
         font-size-adjust="none"
         letter-spacing="normal"
         word-spacing="normal"><path
           style="fill:#000000;stroke-width:0"
           inkscape:connector-curvature="0"
           d="m 462.55,417.51 0.15,-0.06 0.16,-0.06 0.15,-0.06 0.15,-0.05 0.14,-0.05 0.15,-0.04 0.15,-0.05 0.14,-0.03 0.15,-0.04 0.14,-0.03 0.28,-0.06 0.27,-0.05 0.28,-0.03 0.26,-0.03 0.26,-0.02 0.26,-0.02 0.25,-0.01 0.24,-0.01 h 0.24 0.23 0.23 v 1.09 c -1.09,0 -1.7,0 -2.64,0.25 v 0 c 1.14,0.41 2.19,0.46 3.03,0.46 1.25,0 1.46,-0.05 2.35,-0.3 -0.75,-0.35 -0.85,-0.41 -2.74,-0.41 v -1.09 c 1.3,0 4.03,0 4.03,1.55 0,1.2 -1.75,1.34 -3.64,1.34 -1.04,0 -2.78,-0.09 -4.62,-0.94 -1.16,0.6 -2,1.53 -2,2.88 0,3.04 4.89,4.84 9.37,4.84 0.8,0 2.58,0 4.58,-1.41 0.55,-0.39 0.64,-0.48 1,-0.48 0.64,0 1.34,0.64 1.34,1.34 0,0.94 -3.04,2.83 -6.42,2.83 -5.73,0 -11.11,-3.33 -11.11,-7.12 0,-2.14 1.78,-3.38 1.99,-3.53 -2.94,-1.65 -4.53,-4.44 -4.53,-6.72 0,-3.25 2.84,-6.28 8.12,-6.28 6.58,0 9.36,4.37 9.36,5.12 0,0.3 -0.25,0.5 -0.55,0.5 -0.25,0 -0.39,-0.2 -0.5,-0.34 -0.7,-1.14 -1.89,-2.99 -7.87,-2.99 -3.03,0 -7.27,0.74 -7.27,4.28 0,1.69 1.39,4.33 4.44,5.83 z"
           id="path5868" /><path
           style="fill:#000000;stroke-width:0"
           inkscape:connector-curvature="0"
           d="m 490.47,420.92 v 0.04 0.04 0.05 0.04 0.03 0.04 0.04 0.03 0.04 0.03 l -0.01,0.03 v 0.03 0.03 l -0.01,0.03 v 0.03 0.02 l -0.01,0.03 v 0.02 l -0.01,0.03 v 0.02 l -0.01,0.04 -0.02,0.04 -0.02,0.03 -0.02,0.03 -0.02,0.03 -0.02,0.03 -0.03,0.02 -0.03,0.02 -0.03,0.02 -0.04,0.01 -0.04,0.01 -0.05,0.02 h -0.02 -0.02 l -0.03,0.01 H 490 l -0.02,0.01 h -0.03 -0.03 -0.03 -0.03 l -0.04,0.01 h -0.03 -0.04 -0.03 -0.04 -0.04 -0.04 -0.04 -0.04 -0.05 -0.04 c -2.24,-2.2 -5.39,-2.23 -6.83,-2.23 v -1.25 c 0.84,0 3.14,0 5.04,0.97 v -17.77 c 0,-1.16 0,-1.61 -3.48,-1.61 h -1.31 v -1.25 c 0.62,0.03 4.9,0.14 6.2,0.14 1.08,0 5.47,-0.11 6.24,-0.14 v 1.25 h -1.33 c -3.49,0 -3.49,0.45 -3.49,1.61 z"
           id="path5870" /></g>    </g>
    <g
       id="g5991"
       transform="matrix(1.32,0,0,1.32,-0.84199342,134.75744)">
      <g
         word-spacing="normal"
         letter-spacing="normal"
         font-size-adjust="none"
         font-stretch="normal"
         font-weight="normal"
         font-variant="normal"
         font-style="normal"
         stroke-miterlimit="10.433"
         xml:space="preserve"
         transform="matrix(0.3,0,0,-0.3,-52.5,222.75)"
         id="g5989"
         style="font-style:normal;font-variant:normal;font-weight:normal;font-stretch:normal;letter-spacing:normal;word-spacing:normal;text-anchor:start;fill:none;fill-opacity:1;fill-rule:evenodd;stroke:#000000;stroke-linecap:butt;stroke-linejoin:miter;stroke-miterlimit:10.43299961;stroke-dasharray:none;stroke-dashoffset:0;stroke-opacity:1"><path
           id="path5985"
           d="m 462.55,417.51 0.15,-0.06 0.16,-0.06 0.15,-0.06 0.15,-0.05 0.14,-0.05 0.15,-0.04 0.15,-0.05 0.14,-0.03 0.15,-0.04 0.14,-0.03 0.28,-0.06 0.27,-0.05 0.28,-0.03 0.26,-0.03 0.26,-0.02 0.26,-0.02 0.25,-0.01 0.24,-0.01 h 0.24 0.23 0.23 v 1.09 c -1.09,0 -1.7,0 -2.64,0.25 v 0 c 1.14,0.41 2.19,0.46 3.03,0.46 1.25,0 1.46,-0.05 2.35,-0.3 -0.75,-0.35 -0.85,-0.41 -2.74,-0.41 v -1.09 c 1.3,0 4.03,0 4.03,1.55 0,1.2 -1.75,1.34 -3.64,1.34 -1.04,0 -2.78,-0.09 -4.62,-0.94 -1.16,0.6 -2,1.53 -2,2.88 0,3.04 4.89,4.84 9.37,4.84 0.8,0 2.58,0 4.58,-1.41 0.55,-0.39 0.64,-0.48 1,-0.48 0.64,0 1.34,0.64 1.34,1.34 0,0.94 -3.04,2.83 -6.42,2.83 -5.73,0 -11.11,-3.33 -11.11,-7.12 0,-2.14 1.78,-3.38 1.99,-3.53 -2.94,-1.65 -4.53,-4.44 -4.53,-6.72 0,-3.25 2.84,-6.28 8.12,-6.28 6.58,0 9.36,4.37 9.36,5.12 0,0.3 -0.25,0.5 -0.55,0.5 -0.25,0 -0.39,-0.2 -0.5,-0.34 -0.7,-1.14 -1.89,-2.99 -7.87,-2.99 -3.03,0 -7.27,0.74 -7.27,4.28 0,1.69 1.39,4.33 4.44,5.83 z"
           inkscape:connector-curvature="0"
           style="fill:#000000;stroke-width:0" /><path
           id="path5987"
           d="m 496.39,405.11 h -1.18 c -0.1,-0.77 -0.46,-2.83 -0.91,-3.18 -0.26,-0.2 -2.95,-0.2 -3.44,-0.2 h -6.42 c 3.66,3.23 4.88,4.2 6.97,5.84 2.58,2.07 4.98,4.22 4.98,7.54 0,4.21 -3.68,6.79 -8.15,6.79 -4.31,0 -7.25,-3.03 -7.25,-6.23 0,-1.78 1.5,-1.96 1.86,-1.96 0.83,0 1.84,0.6 1.84,1.85 0,0.62 -0.25,1.84 -2.06,1.84 1.08,2.47 3.45,3.24 5.09,3.24 3.49,0 5.3,-2.71 5.3,-5.53 0,-3.04 -2.16,-5.44 -3.28,-6.69 l -8.39,-8.3 c -0.36,-0.31 -0.36,-0.39 -0.36,-1.36 h 14.36 z"
           inkscape:connector-curvature="0"
           style="fill:#000000;stroke-width:0" /></g>    </g>
    <g
       transform="matrix(1.32,0,0,1.32,127.00905,79.315045)"
       id="g6117">
      <g
         style="font-style:normal;font-variant:normal;font-weight:normal;font-stretch:normal;letter-spacing:normal;word-spacing:normal;text-anchor:start;fill:none;fill-opacity:1;fill-rule:evenodd;stroke:#000000;stroke-linecap:butt;stroke-linejoin:miter;stroke-miterlimit:10.43299961;stroke-dasharray:none;stroke-dashoffset:0;stroke-opacity:1"
         id="g6115"
         transform="matrix(0.3,0,0,-0.3,-52.5,222.75)"
         xml:space="preserve"
         stroke-miterlimit="10.433"
         font-style="normal"
         font-variant="normal"
         font-weight="normal"
         font-stretch="normal"
         font-size-adjust="none"
         letter-spacing="normal"
         word-spacing="normal"><path
           style="fill:#000000;stroke-width:0"
           inkscape:connector-curvature="0"
           d="m 462.55,417.51 0.15,-0.06 0.16,-0.06 0.15,-0.06 0.15,-0.05 0.14,-0.05 0.15,-0.04 0.15,-0.05 0.14,-0.03 0.15,-0.04 0.14,-0.03 0.28,-0.06 0.27,-0.05 0.28,-0.03 0.26,-0.03 0.26,-0.02 0.26,-0.02 0.25,-0.01 0.24,-0.01 h 0.24 0.23 0.23 v 1.09 c -1.09,0 -1.7,0 -2.64,0.25 v 0 c 1.14,0.41 2.19,0.46 3.03,0.46 1.25,0 1.46,-0.05 2.35,-0.3 -0.75,-0.35 -0.85,-0.41 -2.74,-0.41 v -1.09 c 1.3,0 4.03,0 4.03,1.55 0,1.2 -1.75,1.34 -3.64,1.34 -1.04,0 -2.78,-0.09 -4.62,-0.94 -1.16,0.6 -2,1.53 -2,2.88 0,3.04 4.89,4.84 9.37,4.84 0.8,0 2.58,0 4.58,-1.41 0.55,-0.39 0.64,-0.48 1,-0.48 0.64,0 1.34,0.64 1.34,1.34 0,0.94 -3.04,2.83 -6.42,2.83 -5.73,0 -11.11,-3.33 -11.11,-7.12 0,-2.14 1.78,-3.38 1.99,-3.53 -2.94,-1.65 -4.53,-4.44 -4.53,-6.72 0,-3.25 2.84,-6.28 8.12,-6.28 6.58,0 9.36,4.37 9.36,5.12 0,0.3 -0.25,0.5 -0.55,0.5 -0.25,0 -0.39,-0.2 -0.5,-0.34 -0.7,-1.14 -1.89,-2.99 -7.87,-2.99 -3.03,0 -7.27,0.74 -7.27,4.28 0,1.69 1.39,4.33 4.44,5.83 z"
           id="path6111" /><path
           style="fill:#000000;stroke-width:0"
           inkscape:connector-curvature="0"
           d="m 488.32,410.4 h 0.25 l 0.25,-0.02 0.24,-0.03 0.24,-0.04 0.23,-0.05 0.23,-0.06 0.22,-0.07 0.21,-0.08 0.21,-0.1 0.2,-0.1 0.2,-0.12 0.19,-0.12 0.18,-0.14 0.18,-0.15 0.16,-0.16 0.16,-0.17 0.15,-0.18 0.15,-0.19 0.13,-0.2 0.13,-0.22 0.11,-0.22 0.11,-0.24 0.1,-0.24 0.09,-0.26 0.08,-0.27 0.07,-0.28 0.06,-0.29 0.05,-0.3 0.04,-0.31 0.03,-0.32 0.01,-0.33 0.01,-0.35 c 0,-4.33 -2.52,-5.61 -4.53,-5.61 -1.39,0 -4.47,0.38 -5.92,2.44 1.62,0.06 2.01,1.22 2.01,1.95 0,1.11 -0.84,1.91 -1.92,1.91 -0.97,0 -1.95,-0.59 -1.95,-2.02 0,-3.28 3.62,-5.4 7.84,-5.4 4.84,0 8.19,3.25 8.19,6.73 0,2.72 -2.22,5.44 -6.07,6.24 3.66,1.33 4.99,3.93 4.99,6.06 0,2.75 -3.17,4.81 -7.03,4.81 -3.88,0 -6.83,-1.89 -6.83,-4.67 0,-1.19 0.77,-1.84 1.81,-1.84 1.08,0 1.77,0.79 1.77,1.76 0,1.02 -0.69,1.75 -1.77,1.81 1.22,1.55 3.61,1.93 4.91,1.93 1.56,0 3.76,-0.77 3.76,-3.8 0,-1.47 -0.48,-3.06 -1.39,-4.14 -1.15,-1.33 -2.12,-1.41 -3.87,-1.5 -0.88,-0.08 -0.94,-0.08 -1.11,-0.11 -0.08,0 -0.36,-0.06 -0.36,-0.45 0,-0.49 0.31,-0.49 0.91,-0.49 z"
           id="path6113" /></g>    </g>
    <g
       id="g6251"
       transform="matrix(1.32,0,0,1.32,66.520618,84.585604)">
      <g
         word-spacing="normal"
         letter-spacing="normal"
         font-size-adjust="none"
         font-stretch="normal"
         font-weight="normal"
         font-variant="normal"
         font-style="normal"
         stroke-miterlimit="10.433"
         xml:space="preserve"
         transform="matrix(0.3,0,0,-0.3,-52.5,222.75)"
         id="g6249"
         style="font-style:normal;font-variant:normal;font-weight:normal;font-stretch:normal;letter-spacing:normal;word-spacing:normal;text-anchor:start;fill:none;fill-opacity:1;fill-rule:evenodd;stroke:#000000;stroke-linecap:butt;stroke-linejoin:miter;stroke-miterlimit:10.43299961;stroke-dasharray:none;stroke-dashoffset:0;stroke-opacity:1"><path
           id="path6245"
           d="m 462.55,417.51 0.15,-0.06 0.16,-0.06 0.15,-0.06 0.15,-0.05 0.14,-0.05 0.15,-0.04 0.15,-0.05 0.14,-0.03 0.15,-0.04 0.14,-0.03 0.28,-0.06 0.27,-0.05 0.28,-0.03 0.26,-0.03 0.26,-0.02 0.26,-0.02 0.25,-0.01 0.24,-0.01 h 0.24 0.23 0.23 v 1.09 c -1.09,0 -1.7,0 -2.64,0.25 v 0 c 1.14,0.41 2.19,0.46 3.03,0.46 1.25,0 1.46,-0.05 2.35,-0.3 -0.75,-0.35 -0.85,-0.41 -2.74,-0.41 v -1.09 c 1.3,0 4.03,0 4.03,1.55 0,1.2 -1.75,1.34 -3.64,1.34 -1.04,0 -2.78,-0.09 -4.62,-0.94 -1.16,0.6 -2,1.53 -2,2.88 0,3.04 4.89,4.84 9.37,4.84 0.8,0 2.58,0 4.58,-1.41 0.55,-0.39 0.64,-0.48 1,-0.48 0.64,0 1.34,0.64 1.34,1.34 0,0.94 -3.04,2.83 -6.42,2.83 -5.73,0 -11.11,-3.33 -11.11,-7.12 0,-2.14 1.78,-3.38 1.99,-3.53 -2.94,-1.65 -4.53,-4.44 -4.53,-6.72 0,-3.25 2.84,-6.28 8.12,-6.28 6.58,0 9.36,4.37 9.36,5.12 0,0.3 -0.25,0.5 -0.55,0.5 -0.25,0 -0.39,-0.2 -0.5,-0.34 -0.7,-1.14 -1.89,-2.99 -7.87,-2.99 -3.03,0 -7.27,0.74 -7.27,4.28 0,1.69 1.39,4.33 4.44,5.83 z"
           inkscape:connector-curvature="0"
           style="fill:#000000;stroke-width:0" /><path
           id="path6247"
           d="m 497.24,404.48 v 1.25 h -3.88 v 15.55 c 0,0.72 0,0.97 -0.76,0.97 -0.42,0 -0.56,0 -0.91,-0.49 l -11.53,-16.03 v -1.25 h 10.25 l 0.23,1.25 h -9.2 l 9.2,12.75 v -12.75 l -0.23,-1.25 v -2.86 c 0,-1.19 0,-1.61 -2.83,-1.61 h -0.94 v -1.25 c 1.74,0.06 3.97,0.14 5.22,0.14 1.3,0 3.52,-0.08 5.27,-0.14 v 1.25 h -0.94 c -2.83,0 -2.83,0.42 -2.83,1.61 v 2.86 z"
           inkscape:connector-curvature="0"
           style="fill:#000000;stroke-width:0" /></g>    </g>
    <g
       transform="matrix(1.32,0,0,1.32,-65.478458,72.120145)"
       id="g6393">
      <g
         style="font-style:normal;font-variant:normal;font-weight:normal;font-stretch:normal;letter-spacing:normal;word-spacing:normal;text-anchor:start;fill:none;fill-opacity:1;fill-rule:evenodd;stroke:#000000;stroke-linecap:butt;stroke-linejoin:miter;stroke-miterlimit:10.43299961;stroke-dasharray:none;stroke-dashoffset:0;stroke-opacity:1"
         id="g6391"
         transform="matrix(0.3,0,0,-0.3,-52.5,222.75)"
         xml:space="preserve"
         stroke-miterlimit="10.433"
         font-style="normal"
         font-variant="normal"
         font-weight="normal"
         font-stretch="normal"
         font-size-adjust="none"
         letter-spacing="normal"
         word-spacing="normal"><path
           style="fill:#000000;stroke-width:0"
           inkscape:connector-curvature="0"
           d="m 462.55,417.51 0.15,-0.06 0.16,-0.06 0.15,-0.06 0.15,-0.05 0.14,-0.05 0.15,-0.04 0.15,-0.05 0.14,-0.03 0.15,-0.04 0.14,-0.03 0.28,-0.06 0.27,-0.05 0.28,-0.03 0.26,-0.03 0.26,-0.02 0.26,-0.02 0.25,-0.01 0.24,-0.01 h 0.24 0.23 0.23 v 1.09 c -1.09,0 -1.7,0 -2.64,0.25 v 0 c 1.14,0.41 2.19,0.46 3.03,0.46 1.25,0 1.46,-0.05 2.35,-0.3 -0.75,-0.35 -0.85,-0.41 -2.74,-0.41 v -1.09 c 1.3,0 4.03,0 4.03,1.55 0,1.2 -1.75,1.34 -3.64,1.34 -1.04,0 -2.78,-0.09 -4.62,-0.94 -1.16,0.6 -2,1.53 -2,2.88 0,3.04 4.89,4.84 9.37,4.84 0.8,0 2.58,0 4.58,-1.41 0.55,-0.39 0.64,-0.48 1,-0.48 0.64,0 1.34,0.64 1.34,1.34 0,0.94 -3.04,2.83 -6.42,2.83 -5.73,0 -11.11,-3.33 -11.11,-7.12 0,-2.14 1.78,-3.38 1.99,-3.53 -2.94,-1.65 -4.53,-4.44 -4.53,-6.72 0,-3.25 2.84,-6.28 8.12,-6.28 6.58,0 9.36,4.37 9.36,5.12 0,0.3 -0.25,0.5 -0.55,0.5 -0.25,0 -0.39,-0.2 -0.5,-0.34 -0.7,-1.14 -1.89,-2.99 -7.87,-2.99 -3.03,0 -7.27,0.74 -7.27,4.28 0,1.69 1.39,4.33 4.44,5.83 z"
           id="path6387" /><path
           style="fill:#000000;stroke-width:0"
           inkscape:connector-curvature="0"
           d="m 484.21,418.2 0.16,-0.04 0.16,-0.04 0.15,-0.04 0.16,-0.03 0.14,-0.03 0.15,-0.03 0.14,-0.03 0.13,-0.02 0.13,-0.03 0.13,-0.02 0.12,-0.02 0.12,-0.01 0.12,-0.02 0.11,-0.01 0.11,-0.02 0.11,-0.01 0.1,-0.01 0.1,-0.01 h 0.09 l 0.09,-0.01 0.09,-0.01 h 0.09 0.08 l 0.08,-0.01 h 0.07 0.07 0.07 0.07 0.06 0.06 0.06 0.05 c 4.6,0 7.31,3.14 7.31,3.67 0,0.37 -0.23,0.48 -0.4,0.48 -0.08,0 -0.14,0 -0.28,-0.11 -0.85,-0.31 -2.69,-1.01 -5.27,-1.01 -0.97,0 -2.83,0.08 -5.09,0.95 -0.35,0.17 -0.41,0.17 -0.46,0.17 -0.45,0 -0.45,-0.39 -0.45,-0.94 v -10.28 c 0,-0.59 0,-1.01 0.56,-1.01 0.32,0 0.35,0.06 0.71,0.48 1.5,1.92 3.62,2.21 4.84,2.21 2.08,0 3.03,-1.68 3.2,-1.96 0.63,-1.15 0.83,-2.47 0.83,-4.5 0,-1.04 0,-3.09 -1.04,-4.62 -0.86,-1.27 -2.36,-2.1 -4.07,-2.1 -2.26,0 -4.61,1.25 -5.48,3.55 1.33,-0.09 1.98,0.77 1.98,1.7 0,1.5 -1.28,1.78 -1.73,1.78 -0.06,0 -1.75,0 -1.75,-1.87 0,-3.14 2.86,-6.28 7.05,-6.28 4.45,0 8.35,3.31 8.35,7.7 0,3.94 -3,7.56 -7.31,7.56 -1.53,0 -3.34,-0.37 -4.87,-1.7 z"
           id="path6389" /></g>    </g>
    <g
       id="g6543"
       transform="matrix(1.32,0,0,1.32,96.315821,4.0412603)">
      <g
         word-spacing="normal"
         letter-spacing="normal"
         font-size-adjust="none"
         font-stretch="normal"
         font-weight="normal"
         font-variant="normal"
         font-style="normal"
         stroke-miterlimit="10.433"
         xml:space="preserve"
         transform="matrix(0.3,0,0,-0.3,-52.5,222.75)"
         id="g6541"
         style="font-style:normal;font-variant:normal;font-weight:normal;font-stretch:normal;letter-spacing:normal;word-spacing:normal;text-anchor:start;fill:none;fill-opacity:1;fill-rule:evenodd;stroke:#000000;stroke-linecap:butt;stroke-linejoin:miter;stroke-miterlimit:10.43299961;stroke-dasharray:none;stroke-dashoffset:0;stroke-opacity:1"><path
           id="path6537"
           d="m 462.55,417.51 0.15,-0.06 0.16,-0.06 0.15,-0.06 0.15,-0.05 0.14,-0.05 0.15,-0.04 0.15,-0.05 0.14,-0.03 0.15,-0.04 0.14,-0.03 0.28,-0.06 0.27,-0.05 0.28,-0.03 0.26,-0.03 0.26,-0.02 0.26,-0.02 0.25,-0.01 0.24,-0.01 h 0.24 0.23 0.23 v 1.09 c -1.09,0 -1.7,0 -2.64,0.25 v 0 c 1.14,0.41 2.19,0.46 3.03,0.46 1.25,0 1.46,-0.05 2.35,-0.3 -0.75,-0.35 -0.85,-0.41 -2.74,-0.41 v -1.09 c 1.3,0 4.03,0 4.03,1.55 0,1.2 -1.75,1.34 -3.64,1.34 -1.04,0 -2.78,-0.09 -4.62,-0.94 -1.16,0.6 -2,1.53 -2,2.88 0,3.04 4.89,4.84 9.37,4.84 0.8,0 2.58,0 4.58,-1.41 0.55,-0.39 0.64,-0.48 1,-0.48 0.64,0 1.34,0.64 1.34,1.34 0,0.94 -3.04,2.83 -6.42,2.83 -5.73,0 -11.11,-3.33 -11.11,-7.12 0,-2.14 1.78,-3.38 1.99,-3.53 -2.94,-1.65 -4.53,-4.44 -4.53,-6.72 0,-3.25 2.84,-6.28 8.12,-6.28 6.58,0 9.36,4.37 9.36,5.12 0,0.3 -0.25,0.5 -0.55,0.5 -0.25,0 -0.39,-0.2 -0.5,-0.34 -0.7,-1.14 -1.89,-2.99 -7.87,-2.99 -3.03,0 -7.27,0.74 -7.27,4.28 0,1.69 1.39,4.33 4.44,5.83 z"
           inkscape:connector-curvature="0"
           style="fill:#000000;stroke-width:0" /><path
           id="path6539"
           d="m 484.04,410.15 v 0.53 l 0.01,0.53 0.02,0.52 0.02,0.51 0.04,0.51 0.05,0.49 0.06,0.49 0.08,0.48 0.09,0.47 0.11,0.46 0.13,0.46 0.14,0.44 0.08,0.22 0.09,0.21 0.09,0.22 0.1,0.21 0.1,0.21 0.11,0.2 0.12,0.2 0.12,0.2 c 1.19,1.9 3.06,3.18 5.29,3.18 1.05,0 2.44,-0.28 3.15,-1.22 -0.88,-0.06 -1.61,-0.66 -1.61,-1.67 0,-0.88 0.59,-1.64 1.64,-1.64 1.04,0 1.67,0.7 1.67,1.7 0,2.03 -1.47,3.84 -4.92,3.84 -5.02,0 -10.14,-4.61 -10.14,-12.09 0,-9.03 4.25,-11.75 8.09,-11.75 4.25,0 7.94,3.25 7.94,7.81 0,4.42 -3.52,7.7 -7.6,7.7 l -0.17,-0.98 c 1.61,0 2.69,-0.63 3.55,-1.91 0.84,-1.32 0.87,-2.79 0.87,-4.81 0,-1.98 0,-3.45 -0.93,-4.81 -0.85,-1.22 -1.96,-1.88 -3.66,-1.88 v 0 c -1.75,0 -3.11,1 -3.84,2.55 -0.52,1.03 -0.8,2.78 -0.8,4.88 0,3.37 2.03,5.98 4.81,5.98 l 0.17,0.98 c -2.78,0 -4.31,-1.84 -5.07,-3.42 z"
           inkscape:connector-curvature="0"
           style="fill:#000000;stroke-width:0" /></g>    </g>
    <g
       transform="matrix(1.32,0,0,1.32,14.360296,69.094661)"
       id="g6701">
      <g
         style="font-style:normal;font-variant:normal;font-weight:normal;font-stretch:normal;letter-spacing:normal;word-spacing:normal;text-anchor:start;fill:none;fill-opacity:1;fill-rule:evenodd;stroke:#000000;stroke-linecap:butt;stroke-linejoin:miter;stroke-miterlimit:10.43299961;stroke-dasharray:none;stroke-dashoffset:0;stroke-opacity:1"
         id="g6699"
         transform="matrix(0.3,0,0,-0.3,-52.5,222.75)"
         xml:space="preserve"
         stroke-miterlimit="10.433"
         font-style="normal"
         font-variant="normal"
         font-weight="normal"
         font-stretch="normal"
         font-size-adjust="none"
         letter-spacing="normal"
         word-spacing="normal"><path
           style="fill:#000000;stroke-width:0"
           inkscape:connector-curvature="0"
           d="m 462.55,417.51 0.15,-0.06 0.16,-0.06 0.15,-0.06 0.15,-0.05 0.14,-0.05 0.15,-0.04 0.15,-0.05 0.14,-0.03 0.15,-0.04 0.14,-0.03 0.28,-0.06 0.27,-0.05 0.28,-0.03 0.26,-0.03 0.26,-0.02 0.26,-0.02 0.25,-0.01 0.24,-0.01 h 0.24 0.23 0.23 v 1.09 c -1.09,0 -1.7,0 -2.64,0.25 v 0 c 1.14,0.41 2.19,0.46 3.03,0.46 1.25,0 1.46,-0.05 2.35,-0.3 -0.75,-0.35 -0.85,-0.41 -2.74,-0.41 v -1.09 c 1.3,0 4.03,0 4.03,1.55 0,1.2 -1.75,1.34 -3.64,1.34 -1.04,0 -2.78,-0.09 -4.62,-0.94 -1.16,0.6 -2,1.53 -2,2.88 0,3.04 4.89,4.84 9.37,4.84 0.8,0 2.58,0 4.58,-1.41 0.55,-0.39 0.64,-0.48 1,-0.48 0.64,0 1.34,0.64 1.34,1.34 0,0.94 -3.04,2.83 -6.42,2.83 -5.73,0 -11.11,-3.33 -11.11,-7.12 0,-2.14 1.78,-3.38 1.99,-3.53 -2.94,-1.65 -4.53,-4.44 -4.53,-6.72 0,-3.25 2.84,-6.28 8.12,-6.28 6.58,0 9.36,4.37 9.36,5.12 0,0.3 -0.25,0.5 -0.55,0.5 -0.25,0 -0.39,-0.2 -0.5,-0.34 -0.7,-1.14 -1.89,-2.99 -7.87,-2.99 -3.03,0 -7.27,0.74 -7.27,4.28 0,1.69 1.39,4.33 4.44,5.83 z"
           id="path6695" /><path
           style="fill:#000000;stroke-width:0"
           inkscape:connector-curvature="0"
           d="m 497.44,419.81 0.03,0.04 0.03,0.03 0.03,0.04 0.02,0.03 0.03,0.03 0.02,0.04 0.02,0.03 0.02,0.03 0.02,0.03 0.01,0.03 0.02,0.03 0.01,0.02 0.01,0.04 0.01,0.03 0.01,0.03 0.01,0.03 0.01,0.04 0.01,0.03 v 0.04 l 0.01,0.04 v 0.04 0.05 l 0.01,0.05 v 0.05 0.05 0.06 0.06 0.07 0.07 0.03 0.04 0.04 0.04 l 0.01,0.04 v 0.04 h -9.13 c -1.39,0 -1.78,0.03 -3.03,0.14 -1.81,0.14 -1.88,0.39 -1.99,0.98 h -1.18 l -1.22,-7.46 h 1.19 c 0.06,0.53 0.42,2.82 0.96,3.17 0.29,0.22 3.11,0.22 3.63,0.22 h 7.59 c -1.11,-1.47 -2.89,-3.63 -3.61,-4.61 -4.57,-5.99 -4.98,-11.53 -4.98,-13.58 0,-0.39 0,-2 1.62,-2 1.68,0 1.68,1.58 1.68,2.03 v 1.39 c 0,6.77 1.4,9.86 2.9,11.73 z"
           id="path6697" /></g>    </g>
    <g
       id="g6867"
       transform="matrix(1.32,0,0,1.32,-49.966131,-0.73752085)">
      <g
         word-spacing="normal"
         letter-spacing="normal"
         font-size-adjust="none"
         font-stretch="normal"
         font-weight="normal"
         font-variant="normal"
         font-style="normal"
         stroke-miterlimit="10.433"
         xml:space="preserve"
         transform="matrix(0.3,0,0,-0.3,-52.5,222.75)"
         id="g6865"
         style="font-style:normal;font-variant:normal;font-weight:normal;font-stretch:normal;letter-spacing:normal;word-spacing:normal;text-anchor:start;fill:none;fill-opacity:1;fill-rule:evenodd;stroke:#000000;stroke-linecap:butt;stroke-linejoin:miter;stroke-miterlimit:10.43299961;stroke-dasharray:none;stroke-dashoffset:0;stroke-opacity:1"><path
           id="path6861"
           d="m 462.55,417.51 0.15,-0.06 0.16,-0.06 0.15,-0.06 0.15,-0.05 0.14,-0.05 0.15,-0.04 0.15,-0.05 0.14,-0.03 0.15,-0.04 0.14,-0.03 0.28,-0.06 0.27,-0.05 0.28,-0.03 0.26,-0.03 0.26,-0.02 0.26,-0.02 0.25,-0.01 0.24,-0.01 h 0.24 0.23 0.23 v 1.09 c -1.09,0 -1.7,0 -2.64,0.25 v 0 c 1.14,0.41 2.19,0.46 3.03,0.46 1.25,0 1.46,-0.05 2.35,-0.3 -0.75,-0.35 -0.85,-0.41 -2.74,-0.41 v -1.09 c 1.3,0 4.03,0 4.03,1.55 0,1.2 -1.75,1.34 -3.64,1.34 -1.04,0 -2.78,-0.09 -4.62,-0.94 -1.16,0.6 -2,1.53 -2,2.88 0,3.04 4.89,4.84 9.37,4.84 0.8,0 2.58,0 4.58,-1.41 0.55,-0.39 0.64,-0.48 1,-0.48 0.64,0 1.34,0.64 1.34,1.34 0,0.94 -3.04,2.83 -6.42,2.83 -5.73,0 -11.11,-3.33 -11.11,-7.12 0,-2.14 1.78,-3.38 1.99,-3.53 -2.94,-1.65 -4.53,-4.44 -4.53,-6.72 0,-3.25 2.84,-6.28 8.12,-6.28 6.58,0 9.36,4.37 9.36,5.12 0,0.3 -0.25,0.5 -0.55,0.5 -0.25,0 -0.39,-0.2 -0.5,-0.34 -0.7,-1.14 -1.89,-2.99 -7.87,-2.99 -3.03,0 -7.27,0.74 -7.27,4.28 0,1.69 1.39,4.33 4.44,5.83 z"
           inkscape:connector-curvature="0"
           style="fill:#000000;stroke-width:0" /><path
           id="path6863"
           d="m 491.18,411.34 0.25,0.13 0.24,0.12 0.24,0.13 0.24,0.13 0.23,0.14 0.22,0.13 0.21,0.14 0.21,0.14 0.2,0.14 0.19,0.15 0.19,0.15 0.18,0.15 0.17,0.15 0.17,0.16 0.15,0.16 0.15,0.16 0.14,0.17 0.14,0.17 0.12,0.17 0.12,0.17 0.1,0.18 0.1,0.18 0.09,0.19 0.09,0.19 0.07,0.19 0.06,0.2 0.05,0.2 0.05,0.21 0.03,0.21 0.03,0.21 0.01,0.22 0.01,0.22 c 0,3.39 -3.52,5.2 -6.89,5.2 l -0.08,-1.01 c 2.72,0 5.13,-1.71 5.13,-4.19 0,-3.09 -3.63,-4.66 -3.69,-4.66 -0.08,0 -0.14,0.03 -0.39,0.17 l -4.22,2.44 c -0.91,0.52 -1.88,1.47 -1.88,2.75 0,2.21 2.55,3.49 5.05,3.49 l 0.08,1.01 c -3.85,0 -6.97,-2.51 -6.97,-5.83 0,-1.62 0.77,-2.81 1.39,-3.51 0.63,-0.74 0.88,-0.88 2.92,-2.1 -1.95,-0.82 -5.4,-2.71 -5.4,-6.37 0,-3.86 4.01,-6.03 7.98,-6.03 l 0.08,1.12 c -3.22,0 -5.97,2.05 -5.97,4.91 0,2.58 1.92,4.56 4.42,5.72 v 0 l 4.78,-2.75 c 0.91,-0.53 2.64,-1.58 2.64,-3.63 0,-2.61 -2.89,-4.25 -5.87,-4.25 l -0.08,-1.12 c 4.42,0 8.05,2.83 8.05,6.59 0,2.3 -1.36,4.25 -3.38,5.44 -0.45,0.28 -1.67,0.97 -2.15,1.25 z"
           inkscape:connector-curvature="0"
           style="fill:#000000;stroke-width:0" /></g>    </g>
  </g>
</svg>
